PathFileType	4	(X/Y/Z)	 control3min.trc
DataRate	CameraRate	NumFrames	NumMarkers	Units	OrigDataRate	OrigDataStartFrame	OrigNumFrames
200	200	8	43	m	200	876	1000
Frame#	Time	C7			LSH			RSH			MAN			RASI			LASI			HIPR			HIPL			RPSI			LPSI			COX			RTHI1			RTHI2			RTHI3			RTHI4			RLKN			RMKN			RSHA1			RSHA2			RSHA3			RSHA4			RLMAL			RMMAL			RHEEL			RMET5			RMET1			RTOE			LTHI1			LTHI2			LTHI3			LTHI4			LLKN			LMKN			LSHA1			LSHA2			LSHA3			LSHA4			LLMAL			LMMAL			LHEEL			LMET5			LMET1			LTOE			
		X1	Y1	Z1	X2	Y2	Z2	X3	Y3	Z3	X4	Y4	Z4	X5	Y5	Z5	X6	Y6	Z6	X7	Y7	Z7	X8	Y8	Z8	X9	Y9	Z9	X10	Y10	Z10	X11	Y11	Z11	X12	Y12	Z12	X13	Y13	Z13	X14	Y14	Z14	X15	Y15	Z15	X16	Y16	Z16	X17	Y17	Z17	X18	Y18	Z18	X19	Y19	Z19	X20	Y20	Z20	X21	Y21	Z21	X22	Y22	Z22	X23	Y23	Z23	X24	Y24	Z24	X25	Y25	Z25	X26	Y26	Z26	X27	Y27	Z27	X28	Y28	Z28	X29	Y29	Z29	X30	Y30	Z30	X31	Y31	Z31	X32	Y32	Z32	X33	Y33	Z33	X34	Y34	Z34	X35	Y35	Z35	X36	Y36	Z36	X37	Y37	Z37	X38	Y38	Z38	X39	Y39	Z39	X40	Y40	Z40	X41	Y41	Z41	X42	Y42	Z42	X43	Y43	Z43	
876	4.3800	-0.360006	1.524586	-0.558696	-0.314666	1.532003	-0.736123	-0.289667	1.524017	-0.377600	-0.225276	1.483475	-0.559004	-0.206135	1.042347	-0.450538	-0.206976	1.045340	-0.675502	-0.260317	1.098635	-0.420403	-0.263237	1.094326	-0.701543	-0.353406	1.092372	-0.504525	-0.352203	1.090639	-0.609321	-0.354946	1.095909	-0.553822	-0.305506	0.823298	-0.378576	-0.293818	0.764565	-0.375460	-0.230017	0.772940	-0.381117	-0.233408	0.834380	-0.385511	-0.284114	0.532282	-0.394802	-0.273786	0.514884	-0.492551	-0.390149	0.356149	-0.385903	-0.404003	0.316416	-0.394812	-0.344993	0.301567	-0.388978	-0.334724	0.340548	-0.385680	-0.405819	0.171921	-0.409380	-0.374476	0.182268	-0.480824	-0.447068	0.171560	-0.460704	-0.331710	0.060192	-0.387268	-0.288448	0.060229	-0.455856	-0.269575	0.051732	-0.441609	-0.313614	0.833995	-0.748915	-0.299560	0.774373	-0.755457	-0.235293	0.782835	-0.749344	-0.241673	0.842069	-0.743724	-0.301574	0.536333	-0.738861	-0.292009	0.522725	-0.640422	-0.403838	0.331967	-0.750976	-0.413008	0.293049	-0.744224	-0.351675	0.283296	-0.747241	-0.349673	0.327039	-0.753664	-0.397367	0.176001	-0.747845	-0.394582	0.181949	-0.671613	-0.457164	0.174931	-0.709992	-0.334838	0.055763	-0.739438	-0.312530	0.057158	-0.662105	-0.289702	0.043984	-0.669605	
877	4.3850	-0.360033	1.526049	-0.558699	-0.314676	1.533570	-0.736211	-0.289698	1.525602	-0.377632	-0.225191	1.485192	-0.559065	-0.205939	1.043996	-0.450530	-0.206625	1.046857	-0.675488	-0.260230	1.100250	-0.420468	-0.262841	1.095840	-0.701602	-0.353214	1.094160	-0.504656	-0.351881	1.092327	-0.609487	-0.354696	1.097649	-0.553945	-0.305303	0.824976	-0.378565	-0.293668	0.766230	-0.375536	-0.229868	0.774553	-0.381256	-0.233209	0.836008	-0.385586	-0.283957	0.533801	-0.394970	-0.273639	0.516531	-0.492760	-0.389872	0.357531	-0.386320	-0.403640	0.317795	-0.395239	-0.344625	0.303030	-0.389325	-0.334413	0.342027	-0.385984	-0.405384	0.173185	-0.409972	-0.373510	0.183646	-0.481193	-0.446210	0.172171	-0.461851	-0.330314	0.062684	-0.386517	-0.286239	0.062840	-0.454570	-0.267359	0.054654	-0.440184	-0.313311	0.835490	-0.748847	-0.299330	0.775848	-0.755307	-0.235066	0.784228	-0.749097	-0.241368	0.843474	-0.743559	-0.300927	0.537778	-0.738281	-0.292108	0.524266	-0.639765	-0.403008	0.333311	-0.751007	-0.412198	0.294368	-0.744277	-0.350890	0.284683	-0.746727	-0.348869	0.328410	-0.753190	-0.396806	0.177444	-0.747553	-0.394066	0.183106	-0.671229	-0.456692	0.175574	-0.709282	-0.333051	0.058277	-0.740454	-0.309893	0.059041	-0.663742	-0.287111	0.045991	-0.671869	
878	4.3900	-0.360024	1.527269	-0.558701	-0.314613	1.534870	-0.736336	-0.289693	1.526952	-0.377642	-0.225064	1.486644	-0.559129	-0.205830	1.045402	-0.450514	-0.206359	1.048087	-0.675483	-0.260247	1.101552	-0.420523	-0.262538	1.096961	-0.701685	-0.353114	1.095623	-0.504801	-0.351647	1.093692	-0.609648	-0.354445	1.099048	-0.554088	-0.305088	0.826368	-0.378574	-0.293453	0.767620	-0.375627	-0.229665	0.775942	-0.381406	-0.233002	0.837416	-0.385677	-0.283653	0.535084	-0.395082	-0.273289	0.517923	-0.492879	-0.389604	0.358771	-0.386769	-0.403343	0.319027	-0.395743	-0.344324	0.304303	-0.389670	-0.334134	0.343316	-0.386284	-0.405040	0.174267	-0.410563	-0.372605	0.184864	-0.481582	-0.445486	0.172531	-0.462998	-0.328962	0.065095	-0.385742	-0.284062	0.065408	-0.453268	-0.265164	0.057534	-0.438745	-0.312951	0.836681	-0.748820	-0.299006	0.777019	-0.755182	-0.234759	0.785349	-0.748810	-0.241019	0.844612	-0.743357	-0.300067	0.538976	-0.737743	-0.292019	0.525570	-0.639179	-0.402270	0.334516	-0.751000	-0.411547	0.295607	-0.744239	-0.350244	0.285880	-0.746194	-0.348160	0.329601	-0.752729	-0.396546	0.178729	-0.747171	-0.393625	0.184102	-0.670745	-0.456421	0.175946	-0.708251	-0.331351	0.060821	-0.741634	-0.307155	0.061018	-0.665494	-0.284352	0.048209	-0.674150	
879	4.3950	-0.359976	1.528254	-0.558703	-0.314476	1.535903	-0.736492	-0.289642	1.528053	-0.377637	-0.224898	1.487839	-0.559195	-0.205799	1.046572	-0.450494	-0.206177	1.049044	-0.675485	-0.260348	1.102563	-0.420570	-0.262333	1.097731	-0.701789	-0.353101	1.096771	-0.504951	-0.351494	1.094744	-0.609798	-0.354186	1.100117	-0.554251	-0.304862	0.827484	-0.378608	-0.293178	0.768744	-0.375732	-0.229407	0.777110	-0.381564	-0.232786	0.838597	-0.385782	-0.283219	0.536150	-0.395145	-0.272758	0.519064	-0.492914	-0.389346	0.359858	-0.387272	-0.403052	0.320129	-0.396247	-0.344055	0.305393	-0.389995	-0.333869	0.344418	-0.386570	-0.404717	0.175173	-0.411103	-0.371767	0.185887	-0.481970	-0.444876	0.172653	-0.464051	-0.327646	0.067359	-0.384976	-0.281977	0.067849	-0.451969	-0.263079	0.060257	-0.437272	-0.312536	0.837569	-0.748830	-0.298585	0.777897	-0.755084	-0.234364	0.786217	-0.748491	-0.240628	0.845495	-0.743122	-0.299064	0.539943	-0.737267	-0.291753	0.526661	-0.638669	-0.401639	0.335579	-0.750913	-0.411032	0.296733	-0.744128	-0.349720	0.286889	-0.745670	-0.347552	0.330609	-0.752286	-0.396499	0.179840	-0.746722	-0.393192	0.184942	-0.670175	-0.456272	0.176082	-0.706980	-0.329736	0.063337	-0.742914	-0.304407	0.063021	-0.667279	-0.281526	0.050527	-0.676380	
880	4.4000	-0.359889	1.529010	-0.558708	-0.314271	1.536673	-0.736673	-0.289539	1.528899	-0.377640	-0.224697	1.488778	-0.559262	-0.205838	1.047517	-0.450476	-0.206074	1.049748	-0.675486	-0.260520	1.103308	-0.420614	-0.262220	1.098186	-0.701903	-0.353169	1.097619	-0.505104	-0.351407	1.095488	-0.609920	-0.353820	1.100843	-0.554451	-0.304626	0.828330	-0.378671	-0.292848	0.769603	-0.375850	-0.229098	0.778058	-0.381725	-0.232564	0.839552	-0.385896	-0.282665	0.537000	-0.395165	-0.272071	0.519953	-0.492876	-0.389074	0.360784	-0.387803	-0.402761	0.321058	-0.396776	-0.343794	0.306295	-0.390283	-0.333609	0.345317	-0.386850	-0.404415	0.175889	-0.411588	-0.371001	0.186715	-0.482341	-0.444349	0.172577	-0.464973	-0.326368	0.069430	-0.384240	-0.280023	0.070095	-0.450710	-0.261145	0.062759	-0.435804	-0.312069	0.838172	-0.748868	-0.298062	0.778495	-0.755001	-0.233880	0.786851	-0.748148	-0.240200	0.846139	-0.742863	-0.297998	0.540681	-0.736860	-0.291324	0.527545	-0.638241	-0.401113	0.336468	-0.750719	-0.410629	0.297650	-0.743875	-0.349300	0.287711	-0.745180	-0.347043	0.331431	-0.751862	-0.396568	0.180758	-0.746230	-0.392725	0.185634	-0.669536	-0.456182	0.176002	-0.705605	-0.328201	0.065771	-0.744215	-0.301693	0.064997	-0.669061	-0.278726	0.052835	-0.678537	
881	4.4050	-0.359765	1.529546	-0.558723	-0.313999	1.537188	-0.736877	-0.289384	1.529505	-0.377640	-0.224465	1.489470	-0.559328	-0.205946	1.048236	-0.450463	-0.206043	1.050220	-0.675484	-0.260748	1.103806	-0.420657	-0.262192	1.098363	-0.702023	-0.353312	1.098170	-0.505258	-0.351426	1.095945	-0.610044	-0.353624	1.101301	-0.554629	-0.304377	0.828916	-0.378765	-0.292471	0.770209	-0.375978	-0.228743	0.778788	-0.381882	-0.232331	0.840283	-0.386018	-0.282002	0.537626	-0.395149	-0.271245	0.520600	-0.492794	-0.388777	0.361519	-0.388323	-0.402463	0.321795	-0.397306	-0.343526	0.307001	-0.390523	-0.333338	0.346002	-0.387111	-0.404097	0.176409	-0.412011	-0.370320	0.187340	-0.482678	-0.443885	0.172327	-0.465738	-0.325131	0.071273	-0.383539	-0.278221	0.072093	-0.449535	-0.259369	0.064994	-0.434408	-0.311553	0.838510	-0.748926	-0.297452	0.778839	-0.754932	-0.233313	0.787273	-0.747785	-0.239735	0.846566	-0.742586	-0.296917	0.541193	-0.736527	-0.290732	0.528230	-0.637905	-0.400689	0.337174	-0.750423	-0.410310	0.298337	-0.743512	-0.348964	0.288327	-0.744735	-0.346623	0.332043	-0.751468	-0.396677	0.181475	-0.745720	-0.392246	0.186153	-0.668886	-0.456118	0.175727	-0.704270	-0.326728	0.068076	-0.745453	-0.299075	0.066882	-0.670769	-0.276033	0.055048	-0.680587	
882	4.4100	-0.359601	1.529861	-0.558748	-0.313663	1.537456	-0.737099	-0.289180	1.529871	-0.377642	-0.224210	1.489916	-0.559399	-0.206119	1.048738	-0.450458	-0.206080	1.050484	-0.675480	-0.261012	1.104079	-0.420708	-0.262250	1.098306	-0.702142	-0.353529	1.098433	-0.505410	-0.351522	1.096132	-0.610153	-0.353410	1.101462	-0.554822	-0.304117	0.829249	-0.378887	-0.292063	0.770569	-0.376113	-0.228356	0.779303	-0.382029	-0.232088	0.840792	-0.386145	-0.281242	0.538020	-0.395104	-0.270322	0.520998	-0.492669	-0.388443	0.362047	-0.388813	-0.402140	0.322332	-0.397799	-0.343241	0.307481	-0.390722	-0.333037	0.346461	-0.387329	-0.403772	0.176750	-0.412345	-0.369711	0.187766	-0.482964	-0.443472	0.171938	-0.466331	-0.323944	0.072864	-0.382881	-0.276585	0.073807	-0.448476	-0.257737	0.066925	-0.433168	-0.310994	0.838608	-0.748984	-0.296757	0.778951	-0.754865	-0.232672	0.787507	-0.747408	-0.239237	0.846798	-0.742291	-0.295850	0.541478	-0.736272	-0.289949	0.528670	-0.637629	-0.400348	0.337674	-0.750028	-0.410057	0.298867	-0.743046	-0.348698	0.288718	-0.744347	-0.346276	0.332438	-0.751111	-0.396766	0.181983	-0.745215	-0.391807	0.186494	-0.668247	-0.456059	0.175258	-0.703085	-0.325292	0.070199	-0.746559	-0.296612	0.068619	-0.672335	-0.273501	0.057097	-0.682490	
883	4.4150	-0.359399	1.529962	-0.558782	-0.313267	1.537480	-0.737331	-0.288921	1.529991	-0.377656	-0.223936	1.490112	-0.559477	-0.206352	1.049018	-0.450464	-0.206179	1.050552	-0.675475	-0.261313	1.104142	-0.420769	-0.262389	1.098047	-0.702254	-0.353811	1.098418	-0.505558	-0.351711	1.096061	-0.610263	-0.353353	1.101373	-0.554990	-0.303848	0.829335	-0.379033	-0.291630	0.770687	-0.376254	-0.227943	0.779597	-0.382162	-0.231841	0.841077	-0.386273	-0.280393	0.538179	-0.395040	-0.269325	0.521157	-0.492525	-0.388073	0.362352	-0.389258	-0.401792	0.322663	-0.398223	-0.342929	0.307734	-0.390870	-0.332703	0.346693	-0.387496	-0.403417	0.176929	-0.412577	-0.369170	0.187974	-0.483190	-0.443092	0.171424	-0.466755	-0.322817	0.074166	-0.382269	-0.275123	0.075203	-0.447558	-0.256252	0.068513	-0.432127	-0.310399	0.838483	-0.749031	-0.295992	0.778851	-0.754789	-0.231963	0.787567	-0.747018	-0.238708	0.846851	-0.741982	-0.294802	0.541532	-0.736096	-0.289048	0.528864	-0.637461	-0.400072	0.337950	-0.749555	-0.409852	0.299189	-0.742577	-0.348477	0.288880	-0.744020	-0.345979	0.332601	-0.750790	-0.396808	0.182264	-0.744742	-0.391429	0.186641	-0.667634	-0.456007	0.174591	-0.702100	-0.323876	0.072091	-0.747482	-0.294345	0.070174	-0.673706	-0.271175	0.058959	-0.684190	
